# xmcd
#
# Track frame offsets:
#	150
#	19890
#	28975
#	46475
#	60027
#	69505
#	78497
#	88307
#	97692
#	106165
#	114445
#	127167
#	139617
#	150537
#	158800
#	172012
#	186917
#	200557
#	211984
#	222795
#	233560
#	241950
#	256975
#	265377
#	281555
#	298267
#	310650
#	325100
#
# Disc length: 4430 seconds
#
# Revision: 0
# Processed by: cddbd v1.5.2PL0 Copyright (c) Steve Scherf et al.
# Submitted via: audiograbber 1.83.01
#
DISCID=91114c1c
DTITLE=Johnny Rebel - The good old south
DYEAR=1900
DGENRE=KKK
TTITLE0=Ship those niggers back
TTITLE1=Stand up and be counted
TTITLE2=Looking for a handout
TTITLE3=Kajun K-K-K
TTITLE4=Move them niggers "north"
TTITLE5=Nigger hating me
TTITLE6=Segregation wagon
TTITLE7=It's gonna sta a jig
TTITLE8=Johnny Reb
TTITLE9=Lyndon, lyndon
TTITLE10=Wo don't want no niggers
TTITLE11=Welfare checks
TTITLE12=Living next to niggers
TTITLE13=That's the way a nigger goes
TTITLE14=She died a nigger
TTITLE15=We is non-violent niggers
TTITLE16=Some niggers never die
TTITLE17=In coon town
TTITLE18=They don't belong in dixie
TTITLE19=Who likes a nigger?
TTITLE20=Who needs a nigger?
TTITLE21=Still looking for a handout
TTITLE22=Black power
TTITLE23=A victim of the big mess
TTITLE24=What has happened to old glory
TTITLE25=Dear daddy bird
TTITLE26=The voice of alabama
TTITLE27=Wake up, my people
EXTD=
EXTT0=
EXTT1=
EXTT2=
EXTT3=
EXTT4=
EXTT5=
EXTT6=
EXTT7=
EXTT8=
EXTT9=
EXTT10=
EXTT11=
EXTT12=
EXTT13=
EXTT14=
EXTT15=
EXTT16=
EXTT17=
EXTT18=
EXTT19=
EXTT20=
EXTT21=
EXTT22=
EXTT23=
EXTT24=
EXTT25=
EXTT26=
EXTT27=
PLAYORDER=
